<svg width="30" height="30" viewBox="0 0 30 30" fill="none" xmlns="http://www.w3.org/2000/svg">
<path d="M27.1875 1.875H2.8125C1.25977 1.875 0 3.13477 0 4.6875V25.3125C0 26.8652 1.25977 28.125 2.8125 28.125H27.1875C28.7402 28.125 30 26.8652 30 25.3125V4.6875C30 3.13477 28.7402 1.875 27.1875 1.875ZM22.2891 18.8965C22.5703 19.1777 22.5703 19.6348 22.2891 19.916L19.916 22.2891C19.6348 22.5703 19.1777 22.5703 18.8965 22.2891L15 18.3574L11.1035 22.2891C10.8223 22.5703 10.3652 22.5703 10.084 22.2891L7.71094 19.916C7.42969 19.6348 7.42969 19.1777 7.71094 18.8965L11.6426 15L7.71094 11.1035C7.42969 10.8223 7.42969 10.3652 7.71094 10.084L10.084 7.71094C10.3652 7.42969 10.8223 7.42969 11.1035 7.71094L15 11.6426L18.8965 7.71094C19.1777 7.42969 19.6348 7.42969 19.916 7.71094L22.2891 10.084C22.5703 10.3652 22.5703 10.8223 22.2891 11.1035L18.3574 15L22.2891 18.8965Z" fill="black"/>
</svg>
